<svg width="84" height="84" viewBox="0 0 84 84" fill="none" xmlns="http://www.w3.org/2000/svg">
<g clip-path="url(#clip0_211_194)">
<path d="M67.859 14.4096H16.0292V61.5479H67.859V14.4096Z" fill="white"/>
<path fill-rule="evenodd" clip-rule="evenodd" d="M83.9163 42C83.9163 65.1653 65.1375 83.9441 41.9721 83.9441C18.807 83.9441 0.0279541 65.1653 0.0279541 42C0.0279541 18.8349 18.807 0.0558472 41.9721 0.0558472C65.1375 0.0558472 83.9163 18.8349 83.9163 42ZM30.0863 58.6916H21.9461C20.2357 58.6916 19.3907 58.6916 18.8756 58.3621C18.3191 58.0013 17.9791 57.4037 17.9379 56.7441C17.9069 56.1365 18.3295 55.3943 19.1744 53.9105L39.2735 18.4831C40.1287 16.9787 40.5615 16.2265 41.1076 15.9483C41.6949 15.6495 42.3956 15.6495 42.983 15.9483C43.5291 16.2265 43.9619 16.9787 44.817 18.4831L48.949 25.6959L48.9701 25.7327C49.8938 27.3466 50.3622 28.1651 50.5667 29.0241C50.7934 29.9617 50.7934 30.9509 50.5667 31.8886C50.3607 32.7541 49.897 33.5785 48.9593 35.2168L38.4017 53.8796L38.3744 53.9274C37.4446 55.5546 36.9734 56.3794 36.3203 57.0016C35.6093 57.6819 34.7541 58.1761 33.8164 58.4548C32.9611 58.6916 32.0029 58.6916 30.0863 58.6916ZM50.643 58.6916H62.3069C64.0277 58.6916 64.8934 58.6916 65.4089 58.3521C65.9652 57.9913 66.3154 57.383 66.3466 56.724C66.3762 56.1359 65.9629 55.4227 65.1531 54.0251C65.1252 53.9775 65.0972 53.9291 65.0688 53.8798L59.2262 43.885L59.1597 43.7724C58.3387 42.3841 57.9243 41.683 57.392 41.412C56.805 41.1131 56.1142 41.1131 55.5271 41.412C54.9913 41.6902 54.5585 42.4218 53.7033 43.8952L47.8815 53.8902L47.8615 53.9246C47.0093 55.3957 46.5834 56.1309 46.6141 56.7341C46.6553 57.3937 46.9953 58.0013 47.5517 58.3621C48.0567 58.6916 48.9222 58.6916 50.643 58.6916Z" fill="#E84142"/>
</g>
<defs>
<clipPath id="clip0_211_194">
<rect width="83.9441" height="84" fill="white"/>
</clipPath>
</defs>
</svg>
